<?xml version="1.0" standalone="no"?>
<!DOCTYPE svg PUBLIC "-//W3C//DTD SVG 20010904//EN"
 "http://www.w3.org/TR/2001/REC-SVG-20010904/DTD/svg10.dtd">
<svg version="1.0" xmlns="http://www.w3.org/2000/svg"
 width="1024.000000pt" height="1024.000000pt" viewBox="0 0 1024.000000 1024.000000"
 preserveAspectRatio="xMidYMid meet">
<metadata>
Created by potrace 1.14, written by Peter Selinger 2001-2017
</metadata>
<g transform="translate(0.000000,1024.000000) scale(0.100000,-0.100000)"
fill="#000000" stroke="none">
<path d="M4969 8966 c-2 -2 -29 -7 -59 -11 -288 -34 -557 -171 -785 -400 -60
-61 -117 -120 -125 -131 -27 -35 -117 -169 -123 -184 -4 -8 -16 -30 -27 -48
-26 -43 -85 -195 -101 -258 -6 -27 -15 -56 -19 -64 -4 -8 -11 -42 -15 -75 -3
-32 -9 -63 -12 -68 -9 -15 -12 -320 -3 -367 4 -25 11 -66 14 -92 13 -97 73
-276 129 -383 12 -22 21 -42 22 -45 1 -12 122 -189 164 -240 72 -88 169 -178
266 -250 77 -56 118 -81 215 -131 8 -4 43 -20 77 -34 44 -19 62 -33 65 -48 10
-56 32 -53 -416 -54 -401 0 -415 -1 -458 -21 -83 -41 -83 -38 -86 -442 -3
-400 -2 -413 61 -464 l39 -31 426 -3 c235 -2 428 -5 430 -7 2 -2 4 -644 4
-1427 -1 -1371 -1 -1423 -19 -1421 -173 20 -492 90 -593 130 -8 3 -19 7 -25 9
-211 57 -565 225 -790 373 -213 141 -407 323 -518 486 -22 33 -43 62 -46 65
-20 17 -156 290 -163 325 -3 19 5 19 277 21 173 0 290 5 306 12 98 40 145 188
86 266 -23 30 -1010 1019 -1060 1062 -40 35 -89 47 -139 34 -38 -10 -101 -70
-590 -558 -516 -517 -547 -549 -555 -592 -10 -47 -3 -84 24 -134 46 -85 69
-91 370 -91 152 0 256 -4 262 -10 5 -6 13 -25 16 -44 3 -19 8 -37 10 -41 2 -3
6 -18 9 -33 21 -116 164 -457 266 -635 44 -78 148 -226 205 -293 16 -19 50
-60 75 -89 102 -122 305 -311 424 -395 16 -11 43 -32 60 -46 35 -29 274 -189
282 -189 3 0 46 -24 97 -53 308 -177 647 -317 1032 -425 108 -31 366 -85 455
-96 25 -2 79 -9 120 -15 81 -11 136 -17 245 -28 95 -9 633 -9 720 0 39 4 93
10 120 13 55 5 141 15 165 19 8 1 40 6 70 10 78 10 390 73 420 85 14 5 54 17
90 25 77 20 378 120 435 146 22 10 81 34 130 54 98 40 411 198 435 220 8 7 17
13 20 12 16 -3 268 162 405 266 249 190 466 420 638 675 75 111 237 423 237
455 0 10 5 17 10 17 6 0 9 3 8 8 -2 8 9 47 22 77 10 23 38 112 45 141 4 18 11
44 35 129 l11 40 237 0 c271 -1 311 4 356 42 43 37 56 66 63 135 5 46 2 62
-15 90 -25 40 -1068 1081 -1099 1097 -48 24 -92 24 -137 -3 -53 -31 -1094
-1070 -1108 -1106 -36 -90 25 -225 112 -247 14 -4 150 -7 302 -8 153 0 278 -1
278 -2 0 -1 -9 -26 -21 -55 -60 -153 -182 -354 -285 -468 -73 -81 -206 -209
-259 -248 -6 -4 -30 -23 -55 -42 -52 -42 -211 -144 -290 -187 -226 -125 -406
-202 -645 -277 -115 -37 -340 -93 -401 -101 -20 -2 -44 -6 -53 -9 -9 -3 -43
-8 -76 -11 -33 -4 -63 -7 -68 -8 -9 -2 -14 2839 -5 2848 2 3 189 5 414 5 l410
1 41 25 c23 13 52 41 65 62 23 37 23 38 23 394 l0 356 -30 44 c-58 81 -54 81
-517 81 l-406 0 -4 22 c-6 28 8 65 24 65 43 1 290 140 392 222 43 33 187 179
216 217 14 18 30 38 35 45 33 37 122 187 162 271 8 17 18 38 24 47 5 10 9 22
9 27 0 5 8 26 17 47 9 22 18 44 19 49 1 6 11 47 23 91 50 193 49 472 -1 684
-19 83 -73 237 -98 280 -5 8 -21 38 -36 65 -29 55 -118 183 -159 230 -90 102
-242 245 -261 245 -3 0 -22 13 -42 29 -41 33 -128 84 -182 107 -19 8 -54 24
-77 34 -63 29 -204 68 -344 95 -38 7 -364 17 -370 11z m303 -980 c98 -28 200
-107 264 -203 123 -186 98 -430 -62 -589 -103 -102 -204 -146 -334 -145 -41 0
-82 2 -90 4 -144 35 -212 83 -328 232 -19 25 -44 91 -57 149 -31 152 12 297
124 419 36 39 151 124 151 111 0 -3 6 -1 13 5 45 37 219 46 319 17z"/>
</g>
</svg>
